<mxfile host="app.diagrams.net" agent="Mozilla/5.0 (Windows NT 10.0; Win64; x64) AppleWebKit/537.36 (KHTML, like Gecko) Chrome/129.0.0.0 Safari/537.36" version="24.7.16">
  <diagram name="Page-1" id="cg8pwSGDnUZFY_u131v4">
    <mxGraphModel dx="1434" dy="738" grid="1" gridSize="10" guides="1" tooltips="1" connect="1" arrows="1" fold="1" page="1" pageScale="1" pageWidth="850" pageHeight="1100" math="0" shadow="0">
      <root>
        <mxCell id="0" />
        <mxCell id="1" parent="0" />
        <mxCell id="bGU1WZQbpPEDXNhrkOnm-5" value="Access&amp;nbsp;&lt;div&gt;Suricata IDS/IPS&lt;/div&gt;" style="ellipse;whiteSpace=wrap;html=1;" parent="1" vertex="1">
          <mxGeometry x="380" y="290" width="90" height="60" as="geometry" />
        </mxCell>
        <mxCell id="bGU1WZQbpPEDXNhrkOnm-8" value="View Activity Logs" style="ellipse;whiteSpace=wrap;html=1;" parent="1" vertex="1">
          <mxGeometry x="200" y="220" width="90" height="60" as="geometry" />
        </mxCell>
        <mxCell id="bGU1WZQbpPEDXNhrkOnm-9" value="Access/Change IDS/IPS Rules" style="ellipse;whiteSpace=wrap;html=1;" parent="1" vertex="1">
          <mxGeometry x="200" y="330" width="90" height="60" as="geometry" />
        </mxCell>
        <mxCell id="jILXn-KuCQsAuBnZJOTG-1" value="Security Analyst&lt;br&gt;Network Administrator" style="shape=umlActor;verticalLabelPosition=bottom;verticalAlign=top;html=1;outlineConnect=0;" vertex="1" parent="1">
          <mxGeometry x="50" y="260" width="50" height="80" as="geometry" />
        </mxCell>
        <mxCell id="jILXn-KuCQsAuBnZJOTG-3" value="Tech-Savvy Client&lt;div&gt;Malicious Actor&lt;/div&gt;" style="shape=umlActor;verticalLabelPosition=bottom;verticalAlign=top;html=1;outlineConnect=0;fillColor=#000000;" vertex="1" parent="1">
          <mxGeometry x="715" y="260" width="45" height="80" as="geometry" />
        </mxCell>
        <mxCell id="jILXn-KuCQsAuBnZJOTG-6" value="" style="endArrow=open;html=1;rounded=0;exitX=0;exitY=0;exitDx=0;exitDy=0;dashed=1;endFill=0;" edge="1" parent="1" source="bGU1WZQbpPEDXNhrkOnm-5" target="bGU1WZQbpPEDXNhrkOnm-8">
          <mxGeometry width="50" height="50" relative="1" as="geometry">
            <mxPoint x="400" y="410" as="sourcePoint" />
            <mxPoint x="450" y="360" as="targetPoint" />
          </mxGeometry>
        </mxCell>
        <mxCell id="jILXn-KuCQsAuBnZJOTG-11" value="&amp;lt;&amp;lt;includes&amp;gt;&amp;gt;" style="edgeLabel;html=1;align=center;verticalAlign=middle;resizable=0;points=[];" vertex="1" connectable="0" parent="jILXn-KuCQsAuBnZJOTG-6">
          <mxGeometry x="0.18" y="3" relative="1" as="geometry">
            <mxPoint y="1" as="offset" />
          </mxGeometry>
        </mxCell>
        <mxCell id="jILXn-KuCQsAuBnZJOTG-7" value="" style="endArrow=open;html=1;rounded=0;exitX=0.289;exitY=0.95;exitDx=0;exitDy=0;exitPerimeter=0;dashed=1;endFill=0;" edge="1" parent="1" source="bGU1WZQbpPEDXNhrkOnm-5" target="bGU1WZQbpPEDXNhrkOnm-9">
          <mxGeometry width="50" height="50" relative="1" as="geometry">
            <mxPoint x="410" y="470" as="sourcePoint" />
            <mxPoint x="460" y="420" as="targetPoint" />
          </mxGeometry>
        </mxCell>
        <mxCell id="jILXn-KuCQsAuBnZJOTG-12" value="&amp;lt;&amp;lt;includes&amp;gt;&amp;gt;" style="edgeLabel;html=1;align=center;verticalAlign=middle;resizable=0;points=[];" vertex="1" connectable="0" parent="jILXn-KuCQsAuBnZJOTG-7">
          <mxGeometry x="0.1244" relative="1" as="geometry">
            <mxPoint as="offset" />
          </mxGeometry>
        </mxCell>
        <mxCell id="jILXn-KuCQsAuBnZJOTG-13" value="" style="endArrow=none;html=1;rounded=0;entryX=0;entryY=0.5;entryDx=0;entryDy=0;" edge="1" parent="1" source="jILXn-KuCQsAuBnZJOTG-1" target="bGU1WZQbpPEDXNhrkOnm-8">
          <mxGeometry width="50" height="50" relative="1" as="geometry">
            <mxPoint x="400" y="410" as="sourcePoint" />
            <mxPoint x="450" y="360" as="targetPoint" />
          </mxGeometry>
        </mxCell>
        <mxCell id="jILXn-KuCQsAuBnZJOTG-14" value="" style="endArrow=none;html=1;rounded=0;" edge="1" parent="1" source="jILXn-KuCQsAuBnZJOTG-1" target="bGU1WZQbpPEDXNhrkOnm-9">
          <mxGeometry width="50" height="50" relative="1" as="geometry">
            <mxPoint x="400" y="410" as="sourcePoint" />
            <mxPoint x="450" y="360" as="targetPoint" />
          </mxGeometry>
        </mxCell>
        <mxCell id="jILXn-KuCQsAuBnZJOTG-15" value="Network Access" style="ellipse;whiteSpace=wrap;html=1;fillColor=#000000;fontColor=#FFFFFF;" vertex="1" parent="1">
          <mxGeometry x="550" y="220" width="90" height="60" as="geometry" />
        </mxCell>
        <mxCell id="jILXn-KuCQsAuBnZJOTG-16" value="" style="endArrow=none;html=1;rounded=0;exitX=0.778;exitY=0.783;exitDx=0;exitDy=0;exitPerimeter=0;" edge="1" parent="1" source="jILXn-KuCQsAuBnZJOTG-15" target="jILXn-KuCQsAuBnZJOTG-3">
          <mxGeometry width="50" height="50" relative="1" as="geometry">
            <mxPoint x="400" y="410" as="sourcePoint" />
            <mxPoint x="450" y="360" as="targetPoint" />
          </mxGeometry>
        </mxCell>
        <mxCell id="jILXn-KuCQsAuBnZJOTG-18" value="" style="endArrow=open;html=1;rounded=0;exitX=0.5;exitY=1;exitDx=0;exitDy=0;entryX=0.5;entryY=0;entryDx=0;entryDy=0;dashed=1;startArrow=none;startFill=0;endFill=0;" edge="1" parent="1" source="bGU1WZQbpPEDXNhrkOnm-8" target="bGU1WZQbpPEDXNhrkOnm-9">
          <mxGeometry width="50" height="50" relative="1" as="geometry">
            <mxPoint x="400" y="410" as="sourcePoint" />
            <mxPoint x="450" y="360" as="targetPoint" />
          </mxGeometry>
        </mxCell>
        <mxCell id="jILXn-KuCQsAuBnZJOTG-19" value="No User Authentication" style="ellipse;whiteSpace=wrap;html=1;fillColor=#000000;fontColor=#FFFFFF;" vertex="1" parent="1">
          <mxGeometry x="550" y="350" width="90" height="60" as="geometry" />
        </mxCell>
        <mxCell id="jILXn-KuCQsAuBnZJOTG-20" value="" style="endArrow=none;html=1;rounded=0;" edge="1" parent="1" source="jILXn-KuCQsAuBnZJOTG-19" target="jILXn-KuCQsAuBnZJOTG-3">
          <mxGeometry width="50" height="50" relative="1" as="geometry">
            <mxPoint x="400" y="410" as="sourcePoint" />
            <mxPoint x="450" y="360" as="targetPoint" />
          </mxGeometry>
        </mxCell>
        <mxCell id="jILXn-KuCQsAuBnZJOTG-21" value="" style="endArrow=open;html=1;rounded=0;exitX=0;exitY=0.5;exitDx=0;exitDy=0;entryX=1;entryY=0;entryDx=0;entryDy=0;endFill=0;dashed=1;" edge="1" parent="1" source="jILXn-KuCQsAuBnZJOTG-15" target="bGU1WZQbpPEDXNhrkOnm-5">
          <mxGeometry width="50" height="50" relative="1" as="geometry">
            <mxPoint x="400" y="410" as="sourcePoint" />
            <mxPoint x="450" y="360" as="targetPoint" />
          </mxGeometry>
        </mxCell>
        <mxCell id="jILXn-KuCQsAuBnZJOTG-22" value="&amp;lt;&amp;lt;threatens&amp;gt;&amp;gt;" style="edgeLabel;html=1;align=center;verticalAlign=middle;resizable=0;points=[];" vertex="1" connectable="0" parent="jILXn-KuCQsAuBnZJOTG-21">
          <mxGeometry x="0.0026" y="-3" relative="1" as="geometry">
            <mxPoint as="offset" />
          </mxGeometry>
        </mxCell>
        <mxCell id="jILXn-KuCQsAuBnZJOTG-23" value="" style="endArrow=open;html=1;rounded=0;exitX=0;exitY=0.5;exitDx=0;exitDy=0;entryX=1;entryY=1;entryDx=0;entryDy=0;dashed=1;endFill=0;" edge="1" parent="1" source="jILXn-KuCQsAuBnZJOTG-19" target="bGU1WZQbpPEDXNhrkOnm-5">
          <mxGeometry width="50" height="50" relative="1" as="geometry">
            <mxPoint x="400" y="410" as="sourcePoint" />
            <mxPoint x="450" y="360" as="targetPoint" />
          </mxGeometry>
        </mxCell>
        <mxCell id="jILXn-KuCQsAuBnZJOTG-24" value="&amp;lt;&amp;lt;threatens&amp;gt;&amp;gt;" style="edgeLabel;html=1;align=center;verticalAlign=middle;resizable=0;points=[];" vertex="1" connectable="0" parent="jILXn-KuCQsAuBnZJOTG-23">
          <mxGeometry x="-0.0687" y="-1" relative="1" as="geometry">
            <mxPoint as="offset" />
          </mxGeometry>
        </mxCell>
        <mxCell id="jILXn-KuCQsAuBnZJOTG-25" value="" style="endArrow=open;html=1;rounded=0;exitX=0.1;exitY=0.667;exitDx=0;exitDy=0;exitPerimeter=0;entryX=1;entryY=0.5;entryDx=0;entryDy=0;dashed=1;endFill=0;" edge="1" parent="1" source="jILXn-KuCQsAuBnZJOTG-19" target="bGU1WZQbpPEDXNhrkOnm-9">
          <mxGeometry width="50" height="50" relative="1" as="geometry">
            <mxPoint x="400" y="410" as="sourcePoint" />
            <mxPoint x="450" y="360" as="targetPoint" />
          </mxGeometry>
        </mxCell>
        <mxCell id="jILXn-KuCQsAuBnZJOTG-26" value="&amp;lt;&amp;lt;threatens&amp;gt;&amp;gt;&lt;span style=&quot;color: rgba(0, 0, 0, 0); font-family: monospace; font-size: 0px; text-align: start; background-color: rgb(251, 251, 251);&quot;&gt;%3CmxGraphModel%3E%3Croot%3E%3CmxCell%20id%3D%220%22%2F%3E%3CmxCell%20id%3D%221%22%20parent%3D%220%22%2F%3E%3CmxCell%20id%3D%222%22%20value%3D%22Network%20Access%22%20style%3D%22ellipse%3BwhiteSpace%3Dwrap%3Bhtml%3D1%3BfillColor%3D%23000000%3BfontColor%3D%23FFFFFF%3B%22%20vertex%3D%221%22%20parent%3D%221%22%3E%3CmxGeometry%20x%3D%22550%22%20y%3D%22220%22%20width%3D%2290%22%20height%3D%2260%22%20as%3D%22geometry%22%2F%3E%3C%2FmxCell%3E%3C%2Froot%3E%3C%2FmxGraphModel%3E&lt;/span&gt;" style="edgeLabel;html=1;align=center;verticalAlign=middle;resizable=0;points=[];" vertex="1" connectable="0" parent="jILXn-KuCQsAuBnZJOTG-25">
          <mxGeometry x="0.197" y="3" relative="1" as="geometry">
            <mxPoint as="offset" />
          </mxGeometry>
        </mxCell>
        <mxCell id="jILXn-KuCQsAuBnZJOTG-27" value="" style="endArrow=open;html=1;rounded=0;entryX=1;entryY=0.5;entryDx=0;entryDy=0;dashed=1;endFill=0;" edge="1" parent="1" target="bGU1WZQbpPEDXNhrkOnm-8">
          <mxGeometry width="50" height="50" relative="1" as="geometry">
            <mxPoint x="550" y="250" as="sourcePoint" />
            <mxPoint x="450" y="360" as="targetPoint" />
          </mxGeometry>
        </mxCell>
        <mxCell id="jILXn-KuCQsAuBnZJOTG-28" value="&amp;lt;&amp;lt;threatens&amp;gt;&amp;gt;" style="edgeLabel;html=1;align=center;verticalAlign=middle;resizable=0;points=[];" vertex="1" connectable="0" parent="jILXn-KuCQsAuBnZJOTG-27">
          <mxGeometry x="-0.0154" y="-2" relative="1" as="geometry">
            <mxPoint as="offset" />
          </mxGeometry>
        </mxCell>
        <mxCell id="jILXn-KuCQsAuBnZJOTG-29" value="Implement User Authentication" style="ellipse;whiteSpace=wrap;html=1;" vertex="1" parent="1">
          <mxGeometry x="200" y="430" width="90" height="60" as="geometry" />
        </mxCell>
        <mxCell id="jILXn-KuCQsAuBnZJOTG-30" value="Properly Segment Guest Networks" style="ellipse;whiteSpace=wrap;html=1;" vertex="1" parent="1">
          <mxGeometry x="200" y="120" width="90" height="60" as="geometry" />
        </mxCell>
        <mxCell id="jILXn-KuCQsAuBnZJOTG-31" value="" style="endArrow=none;html=1;rounded=0;" edge="1" parent="1" source="jILXn-KuCQsAuBnZJOTG-1" target="jILXn-KuCQsAuBnZJOTG-30">
          <mxGeometry width="50" height="50" relative="1" as="geometry">
            <mxPoint x="400" y="410" as="sourcePoint" />
            <mxPoint x="450" y="360" as="targetPoint" />
          </mxGeometry>
        </mxCell>
        <mxCell id="jILXn-KuCQsAuBnZJOTG-32" value="" style="endArrow=none;html=1;rounded=0;entryX=0.022;entryY=0.4;entryDx=0;entryDy=0;entryPerimeter=0;" edge="1" parent="1" source="jILXn-KuCQsAuBnZJOTG-1" target="jILXn-KuCQsAuBnZJOTG-29">
          <mxGeometry width="50" height="50" relative="1" as="geometry">
            <mxPoint x="120" y="440" as="sourcePoint" />
            <mxPoint x="450" y="360" as="targetPoint" />
          </mxGeometry>
        </mxCell>
        <mxCell id="jILXn-KuCQsAuBnZJOTG-33" value="" style="curved=1;endArrow=none;html=1;rounded=0;exitX=0.5;exitY=0;exitDx=0;exitDy=0;exitPerimeter=0;entryX=0.5;entryY=0;entryDx=0;entryDy=0;endFill=0;" edge="1" parent="1" source="jILXn-KuCQsAuBnZJOTG-1" target="bGU1WZQbpPEDXNhrkOnm-5">
          <mxGeometry width="50" height="50" relative="1" as="geometry">
            <mxPoint x="400" y="410" as="sourcePoint" />
            <mxPoint x="450" y="360" as="targetPoint" />
            <Array as="points">
              <mxPoint x="90" y="90" />
              <mxPoint x="310" y="40" />
              <mxPoint x="440" y="140" />
            </Array>
          </mxGeometry>
        </mxCell>
        <mxCell id="jILXn-KuCQsAuBnZJOTG-36" value="" style="curved=1;endArrow=open;html=1;rounded=0;dashed=1;endFill=0;" edge="1" parent="1" source="jILXn-KuCQsAuBnZJOTG-29" target="jILXn-KuCQsAuBnZJOTG-19">
          <mxGeometry width="50" height="50" relative="1" as="geometry">
            <mxPoint x="400" y="410" as="sourcePoint" />
            <mxPoint x="450" y="360" as="targetPoint" />
            <Array as="points">
              <mxPoint x="370" y="530" />
              <mxPoint x="530" y="520" />
            </Array>
          </mxGeometry>
        </mxCell>
        <mxCell id="jILXn-KuCQsAuBnZJOTG-37" value="&amp;lt;&amp;lt;prevents&amp;gt;&amp;gt;" style="edgeLabel;html=1;align=center;verticalAlign=middle;resizable=0;points=[];" vertex="1" connectable="0" parent="jILXn-KuCQsAuBnZJOTG-36">
          <mxGeometry x="0.2225" y="16" relative="1" as="geometry">
            <mxPoint as="offset" />
          </mxGeometry>
        </mxCell>
        <mxCell id="jILXn-KuCQsAuBnZJOTG-38" value="" style="curved=1;endArrow=open;html=1;rounded=0;entryX=0.333;entryY=-0.017;entryDx=0;entryDy=0;entryPerimeter=0;dashed=1;endFill=0;" edge="1" parent="1" source="jILXn-KuCQsAuBnZJOTG-30" target="jILXn-KuCQsAuBnZJOTG-15">
          <mxGeometry width="50" height="50" relative="1" as="geometry">
            <mxPoint x="400" y="410" as="sourcePoint" />
            <mxPoint x="450" y="360" as="targetPoint" />
            <Array as="points">
              <mxPoint x="400" y="140" />
              <mxPoint x="520" y="160" />
            </Array>
          </mxGeometry>
        </mxCell>
        <mxCell id="jILXn-KuCQsAuBnZJOTG-39" value="&amp;lt;&amp;lt;prevents&amp;gt;&amp;gt;" style="edgeLabel;html=1;align=center;verticalAlign=middle;resizable=0;points=[];" vertex="1" connectable="0" parent="jILXn-KuCQsAuBnZJOTG-38">
          <mxGeometry x="0.3307" y="-4" relative="1" as="geometry">
            <mxPoint as="offset" />
          </mxGeometry>
        </mxCell>
        <mxCell id="jILXn-KuCQsAuBnZJOTG-40" value="" style="endArrow=open;html=1;rounded=0;exitX=0.411;exitY=1.05;exitDx=0;exitDy=0;exitPerimeter=0;entryX=1;entryY=0.5;entryDx=0;entryDy=0;dashed=1;endFill=0;" edge="1" parent="1" source="bGU1WZQbpPEDXNhrkOnm-5" target="jILXn-KuCQsAuBnZJOTG-29">
          <mxGeometry width="50" height="50" relative="1" as="geometry">
            <mxPoint x="400" y="410" as="sourcePoint" />
            <mxPoint x="450" y="360" as="targetPoint" />
          </mxGeometry>
        </mxCell>
        <mxCell id="jILXn-KuCQsAuBnZJOTG-41" value="&amp;lt;&amp;lt;includes&amp;gt;&amp;gt;" style="edgeLabel;html=1;align=center;verticalAlign=middle;resizable=0;points=[];" vertex="1" connectable="0" parent="jILXn-KuCQsAuBnZJOTG-40">
          <mxGeometry x="0.1796" relative="1" as="geometry">
            <mxPoint as="offset" />
          </mxGeometry>
        </mxCell>
        <mxCell id="jILXn-KuCQsAuBnZJOTG-42" value="" style="endArrow=open;html=1;rounded=0;exitX=0.244;exitY=0.133;exitDx=0;exitDy=0;exitPerimeter=0;endFill=0;dashed=1;" edge="1" parent="1" source="bGU1WZQbpPEDXNhrkOnm-5" target="jILXn-KuCQsAuBnZJOTG-30">
          <mxGeometry width="50" height="50" relative="1" as="geometry">
            <mxPoint x="400" y="410" as="sourcePoint" />
            <mxPoint x="450" y="360" as="targetPoint" />
          </mxGeometry>
        </mxCell>
        <mxCell id="jILXn-KuCQsAuBnZJOTG-43" value="&amp;lt;&amp;lt;includes&amp;gt;&amp;gt;" style="edgeLabel;html=1;align=center;verticalAlign=middle;resizable=0;points=[];" vertex="1" connectable="0" parent="jILXn-KuCQsAuBnZJOTG-42">
          <mxGeometry x="0.482" y="1" relative="1" as="geometry">
            <mxPoint as="offset" />
          </mxGeometry>
        </mxCell>
      </root>
    </mxGraphModel>
  </diagram>
</mxfile>
